<svg width="1920" height="960" viewBox="0 0 1920 960" fill="none" xmlns="http://www.w3.org/2000/svg">
    <rect width="1920" height="960" fill="#301848" />
    <path
        d="M415.284 214.45L415.309 327.908C415.309 328.801 415.334 329.693 415.383 330.579C415.384 330.993 415.696 331.34 416.106 331.384C416.494 331.446 416.887 331.477 417.28 331.477H440.399L440.596 331.476C441.803 331.472 442.426 331.469 442.746 331.157C443.087 330.826 443.087 330.144 443.086 328.738L443.086 326.818C443.049 314.132 443.049 301.446 443.086 288.761C443.088 288.359 443.062 287.954 443.035 287.548C442.96 286.387 442.885 285.22 443.457 284.114C444.589 283.69 445.756 283.749 446.919 283.807C447.322 283.827 447.725 283.847 448.126 283.847H465.613C467.132 283.841 467.349 283.661 467.633 282.28C467.755 281.699 467.819 281.107 467.824 280.514V261.783C467.805 261.093 467.712 260.407 467.546 259.738C467.281 258.585 467.064 258.412 465.977 258.356H446.693C446.43 258.356 446.166 258.361 445.903 258.366C445.376 258.375 444.849 258.385 444.322 258.356C443.401 258.356 443.16 258.065 443.086 257.117C443.08 257.018 443.08 256.918 443.086 256.819V238.386C443.092 237.208 443.37 236.948 444.451 236.892H467.589C468.38 236.892 469.171 236.88 469.955 236.837C470.478 236.837 470.903 236.413 470.906 235.889C470.95 235.102 470.95 234.309 470.95 233.515V214.19C470.95 213.941 470.951 213.711 470.952 213.497C470.959 212.15 470.963 211.473 470.628 211.137C470.291 210.8 469.615 210.804 468.26 210.811C468.055 210.812 467.833 210.813 467.596 210.813H418.991C418.621 210.813 418.288 210.809 417.988 210.806C416.637 210.793 415.955 210.786 415.613 211.123C415.265 211.467 415.27 212.168 415.281 213.582C415.282 213.846 415.284 214.134 415.284 214.45Z"
        fill="#A59CE5" />
    <path
        d="M506.911 291.363V258.059C506.992 255.879 506.922 253.697 506.701 251.528C506.632 250.639 506.659 249.746 506.781 248.863C507.071 245.208 507.139 241.54 507.065 237.878C507.065 236.707 506.793 236.459 505.651 236.452H492.315C491.804 236.452 491.356 236.459 490.963 236.465C489.534 236.485 488.829 236.495 488.485 236.148C488.151 235.809 488.159 235.131 488.175 233.793C488.18 233.388 488.186 232.922 488.183 232.388C488.162 228.356 488.169 224.324 488.176 220.293L488.176 220.251C488.179 218.249 488.183 216.247 488.183 214.245C488.183 213.452 488.183 212.659 488.232 211.872C488.221 211.624 488.309 211.381 488.477 211.198C488.645 211.015 488.88 210.907 489.128 210.899C489.813 210.85 490.505 210.837 491.197 210.837H550.494C553.539 210.837 553.583 210.837 553.583 214.004V233.33C553.583 234.024 553.583 234.718 553.527 235.412C553.537 235.663 553.446 235.908 553.274 236.091C553.102 236.274 552.863 236.38 552.613 236.384C551.921 236.428 551.229 236.446 550.544 236.452H538.357C537.566 236.452 536.776 236.452 535.991 236.496C535.475 236.467 535.03 236.858 534.99 237.376C534.95 237.67 534.925 237.965 534.916 238.262C534.88 239.937 534.825 241.614 534.771 243.29C534.647 247.062 534.524 250.835 534.614 254.601C534.95 269.07 534.89 283.54 534.829 298.011L534.829 298.022C534.8 305.051 534.77 312.08 534.787 319.11C534.787 321.239 534.727 323.377 534.667 325.516C534.627 326.943 534.587 328.373 534.564 329.798C534.533 331.434 534.36 331.607 532.619 331.614H518.412C515.151 331.614 511.889 331.614 508.628 331.558C507.281 331.558 507.078 331.329 506.997 330.027C506.936 328.943 506.936 327.846 506.936 326.756C506.919 314.958 506.911 303.161 506.911 291.363Z"
        fill="#A59CE5" />
    <path
        d="M299.062 214.704L299.081 330.058C299.136 331.372 299.303 331.514 300.724 331.57H344.585C344.816 331.57 345.047 331.574 345.277 331.578C345.738 331.587 346.197 331.595 346.654 331.57C347.859 331.521 348.069 331.329 348.124 330.207V307.015C348.121 305.144 348.202 304.276 347.808 303.875C347.408 303.469 346.519 303.545 344.56 303.545H328.556C326.703 303.539 326.475 303.309 326.431 301.543C326.357 299.164 326.357 296.785 326.357 294.405V215.001C326.357 214.704 326.361 214.406 326.366 214.109C326.374 213.514 326.382 212.919 326.357 212.325C326.302 211.054 326.092 210.868 324.721 210.813H303.083C300.811 210.822 299.809 210.689 299.373 211.124C298.946 211.55 299.062 212.521 299.062 214.704Z"
        fill="#A59CE5" />
    <path fill-rule="evenodd" clip-rule="evenodd"
        d="M253.941 373.326C253.479 373.326 253.071 373.332 252.71 373.336C251.316 373.354 250.631 373.363 250.301 373.025C249.983 372.699 249.995 372.05 250.02 370.774C250.028 370.366 250.037 369.894 250.037 369.348C250.012 305.024 250 240.691 250 176.349V172.483C250 170.128 250.056 170.054 252.52 170.005H586.313C586.624 170.005 586.912 170.003 587.179 170.002C588.984 169.994 589.846 169.99 590.251 170.418C590.621 170.81 590.61 171.562 590.588 173.003C590.582 173.395 590.575 173.842 590.575 174.342V369.125C590.575 369.662 590.583 370.13 590.59 370.54C590.613 371.934 590.625 372.642 590.277 372.996C589.919 373.361 589.18 373.351 587.68 373.331C587.265 373.326 586.791 373.319 586.252 373.32L253.941 373.326ZM565.139 351.906C566.121 351.906 567.11 351.875 568.098 351.813C568.514 351.807 568.851 351.474 568.864 351.057C568.926 350.072 568.969 349.081 568.969 348.089V193.153C568.907 191.982 568.672 191.722 567.591 191.66C566.869 191.625 566.138 191.627 565.409 191.628L564.923 191.629H398.027C397.518 191.629 397.07 191.623 396.675 191.617C395.205 191.597 394.47 191.587 394.109 191.949C393.747 192.31 393.758 193.043 393.778 194.506C393.783 194.916 393.79 195.384 393.789 195.917V299.697C393.789 300.688 393.771 301.68 393.734 302.671C393.742 302.921 393.649 303.164 393.475 303.344C393.302 303.524 393.063 303.626 392.813 303.625C392.155 303.672 391.496 303.675 390.837 303.679L390.441 303.681H370.583C370.096 303.681 369.667 303.687 369.289 303.693C367.901 303.712 367.209 303.722 366.869 303.381C366.531 303.043 366.54 302.358 366.558 300.993C366.563 300.64 366.568 300.24 366.568 299.79V195.415C366.568 195.066 366.571 194.749 366.574 194.462C366.586 193.069 366.593 192.355 366.24 191.992C365.87 191.613 365.106 191.617 363.542 191.626C363.281 191.628 362.997 191.629 362.689 191.629H280.538C279.231 191.629 277.924 191.592 276.619 191.556C276.148 191.542 275.678 191.529 275.207 191.518C274.262 191.518 273.972 191.71 273.972 192.707C273.916 194.789 273.886 196.865 273.886 198.947V344.657C273.886 345.747 273.886 346.838 273.923 347.928C273.94 348.509 273.943 349.006 273.945 349.43C273.952 350.631 273.955 351.256 274.269 351.578C274.61 351.928 275.316 351.921 276.788 351.907C277.119 351.904 277.488 351.9 277.901 351.9L565.139 351.906Z"
        fill="#A59CE5" />
    <path
        d="M280.68 607.17V583.64H292.64C300.44 583.64 305.77 588.06 305.77 595.47C305.77 602.62 300.44 607.17 292.64 607.17H280.68ZM294.72 624.85C313.44 624.85 326.31 612.76 326.31 595.34C326.31 578.18 313.44 565.83 294.72 565.83H260.01V658H280.55V624.85H294.72ZM375.52 593.39C374.22 593 372.27 592.74 370.32 592.74C365.12 592.74 356.93 594.82 353.55 602.1V593.39H334.44V658H354.2V629.79C354.2 616.92 361.35 612.24 369.28 612.24C371.23 612.24 373.31 612.37 375.52 612.89V593.39ZM413.785 641.75C406.375 641.75 399.225 636.42 399.225 625.63C399.225 614.71 406.375 609.64 413.785 609.64C421.325 609.64 428.345 614.71 428.345 625.63C428.345 636.55 421.325 641.75 413.785 641.75ZM413.785 591.44C394.545 591.44 379.465 605.61 379.465 625.63C379.465 645.65 394.545 659.95 413.785 659.95C433.155 659.95 448.105 645.65 448.105 625.63C448.105 605.61 433.155 591.44 413.785 591.44ZM458.224 660.6C458.224 664.63 456.144 667.23 451.594 667.23C448.604 667.23 446.654 666.71 445.744 666.45V682.83C446.654 683.22 449.774 684.65 456.664 684.65C469.794 684.65 477.984 675.68 477.984 662.68V593.39H458.224V660.6ZM456.534 573.63C456.534 580 461.734 585.2 467.974 585.2C474.474 585.2 479.674 580 479.674 573.63C479.674 567.13 474.474 562.06 467.974 562.06C461.734 562.06 456.534 567.13 456.534 573.63ZM507.772 617.96C508.162 613.15 512.322 607.04 520.642 607.04C530.002 607.04 533.382 613.02 533.642 617.96H507.772ZM535.072 634.73C533.252 639.8 529.222 643.18 522.072 643.18C514.402 643.18 507.772 637.98 507.382 630.7H552.362C552.492 630.31 552.752 627.32 552.752 624.59C552.752 603.79 540.402 591.44 520.382 591.44C503.612 591.44 488.142 604.7 488.142 625.5C488.142 647.21 504.002 659.95 521.812 659.95C538.192 659.95 548.462 650.59 551.582 639.41L535.072 634.73ZM592.609 609.64C600.279 609.64 604.179 614.32 605.609 619.26L623.289 613.93C620.429 602.36 610.029 591.44 592.219 591.44C573.239 591.44 558.159 605.61 558.159 625.76C558.159 645.78 573.629 659.95 592.869 659.95C610.159 659.95 620.819 648.77 623.679 637.46L606.259 632.13C604.829 636.94 600.539 641.75 592.869 641.75C584.679 641.75 577.789 636.03 577.789 625.76C577.789 615.36 584.419 609.64 592.609 609.64ZM656.77 574.54H639.09V582.86C639.09 588.84 635.84 593.39 629.08 593.39H625.83V610.68H637.27V638.37C637.27 651.24 645.46 659.17 658.85 659.17C665.09 659.17 668.34 657.74 669.12 657.35V640.97C667.95 641.23 666 641.62 663.92 641.62C659.63 641.62 656.77 640.19 656.77 634.86V610.68H669.38V593.39H656.77V574.54ZM729.301 620.95C729.301 614.45 733.461 609.64 739.961 609.64C747.111 609.64 750.491 614.45 750.491 620.82V658H770.251V617.44C770.251 603.27 762.971 591.7 746.721 591.7C740.091 591.7 732.161 594.69 728.651 600.8V593.39H709.541V658H729.301V620.95ZM780.355 640.19C780.355 650.46 788.545 659.82 802.715 659.82C811.295 659.82 817.535 656.18 820.915 650.72C820.915 655.14 821.435 657.48 821.565 658H839.375C839.245 657.35 838.595 653.06 838.595 647.99V616.4C838.595 603.14 830.925 591.44 809.995 591.44C791.015 591.44 782.435 603.66 781.655 612.89L798.815 616.4C799.205 611.59 802.975 606.91 809.865 606.91C816.105 606.91 819.355 610.16 819.355 613.93C819.355 616.14 818.185 617.83 814.675 618.35L799.465 620.69C788.805 622.25 780.355 628.75 780.355 640.19ZM807.525 645.52C802.065 645.52 799.855 642.27 799.855 638.89C799.855 634.34 802.975 632.39 807.135 631.74L819.355 629.79V632.65C819.355 642.66 813.375 645.52 807.525 645.52ZM872.382 658V620.82C872.382 614.97 876.152 609.64 883.042 609.64C890.192 609.64 893.442 614.45 893.442 620.56V658H912.942V620.69C912.942 614.97 916.712 609.64 923.732 609.64C930.752 609.64 934.002 614.45 934.002 620.56V658H953.112V616.14C953.112 598.59 941.412 591.44 929.192 591.44C920.482 591.44 914.242 594.3 909.172 601.58C905.922 595.21 899.292 591.44 890.062 591.44C883.042 591.44 874.722 595.08 871.472 600.8V593.39H852.622V658H872.382ZM982.15 617.96C982.54 613.15 986.7 607.04 995.02 607.04C1004.38 607.04 1007.76 613.02 1008.02 617.96H982.15ZM1009.45 634.73C1007.63 639.8 1003.6 643.18 996.45 643.18C988.78 643.18 982.15 637.98 981.76 630.7H1026.74C1026.87 630.31 1027.13 627.32 1027.13 624.59C1027.13 603.79 1014.78 591.44 994.76 591.44C977.99 591.44 962.52 604.7 962.52 625.5C962.52 647.21 978.38 659.95 996.19 659.95C1012.57 659.95 1022.84 650.59 1025.96 639.41L1009.45 634.73Z"
        fill="white" />
    <path
        d="M274 777.9C284.86 777.9 291.34 771 293.26 763.8L286.66 761.64C285.22 766.44 281.14 771 274 771C266.74 771 259.9 765.72 259.9 755.76C259.9 745.44 266.92 740.34 273.94 740.34C281.08 740.34 285.04 744.48 286.3 749.64L293.08 747.36C291.16 739.92 284.74 733.56 273.94 733.56C262.9 733.56 252.52 741.9 252.52 755.76C252.52 769.62 262.54 777.9 274 777.9ZM310.554 771.66C306.294 771.66 302.394 768.42 302.394 762.36C302.394 756.3 306.294 753.18 310.554 753.18C314.874 753.18 318.714 756.3 318.714 762.36C318.714 768.48 314.874 771.66 310.554 771.66ZM310.554 746.88C301.854 746.88 295.434 753.42 295.434 762.36C295.434 771.36 301.854 777.9 310.554 777.9C319.314 777.9 325.734 771.36 325.734 762.36C325.734 753.42 319.314 746.88 310.554 746.88ZM338.16 777V759.66C338.16 755.94 340.5 753.18 344.22 753.18C348.18 753.18 349.86 755.82 349.86 759.18V777H356.7V759.66C356.7 756.06 359.1 753.18 362.76 753.18C366.66 753.18 368.4 755.76 368.4 759.18V777H375.12V758.04C375.12 750.3 370.08 746.94 364.8 746.94C361.02 746.94 357.6 748.26 355.32 752.1C353.76 748.68 350.4 746.94 346.56 746.94C343.26 746.94 339.6 748.5 337.92 751.5V747.78H331.26V777H338.16ZM389.343 788.4V773.7C390.843 775.92 394.023 777.72 398.223 777.72C406.623 777.72 411.963 771.12 411.963 762.36C411.963 753.72 407.103 747.12 398.463 747.12C393.963 747.12 390.603 749.22 389.163 751.74V747.78H382.443V788.4H389.343ZM405.003 762.36C405.003 767.94 401.763 771.54 397.143 771.54C392.583 771.54 389.283 767.94 389.283 762.36C389.283 756.9 392.583 753.3 397.143 753.3C401.823 753.3 405.003 756.9 405.003 762.36ZM415.654 769.08C415.654 773.7 419.434 777.9 425.554 777.9C430.294 777.9 433.174 775.5 434.554 773.28C434.554 775.62 434.794 776.82 434.854 777H441.334C441.274 776.7 440.974 774.96 440.974 772.32V757.8C440.974 751.98 437.554 746.88 428.554 746.88C421.354 746.88 416.794 751.38 416.254 756.42L422.614 757.86C422.914 754.92 424.954 752.58 428.614 752.58C432.454 752.58 434.134 754.56 434.134 757.02C434.134 758.04 433.654 758.88 431.974 759.12L424.474 760.26C419.494 760.98 415.654 763.86 415.654 769.08ZM426.874 772.44C424.114 772.44 422.614 770.64 422.614 768.66C422.614 766.26 424.354 765.06 426.514 764.7L434.134 763.56V764.88C434.134 770.58 430.774 772.44 426.874 772.44ZM455.148 760.14C455.148 756.3 457.248 753.24 461.208 753.24C465.588 753.24 467.208 756.12 467.208 759.72V777H474.168V758.52C474.168 752.1 470.748 746.94 463.608 746.94C460.368 746.94 456.888 748.32 454.968 751.68V747.78H448.188V777H455.148V760.14ZM490.028 788.82L508.628 747.78H501.248L493.388 766.26L484.988 747.78H477.128L489.608 773.52L482.588 788.82H490.028ZM549.069 734.16H542.649L521.709 777.3H528.129L549.069 734.16ZM578.775 753.3C583.215 753.3 585.195 756.18 585.855 758.76L592.095 756.48C590.895 751.8 586.575 746.88 578.715 746.88C570.315 746.88 563.775 753.36 563.775 762.36C563.775 771.24 570.315 777.9 578.895 777.9C586.575 777.9 590.955 772.92 592.335 768.36L586.215 766.14C585.555 768.36 583.455 771.54 578.895 771.54C574.515 771.54 570.735 768.24 570.735 762.36C570.735 756.48 574.515 753.3 578.775 753.3ZM604.276 777V733.56H597.316V777H604.276ZM618.953 777V747.78H612.053V777H618.953ZM610.973 737.52C610.973 740.04 613.013 742.02 615.473 742.02C617.993 742.02 620.033 740.04 620.033 737.52C620.033 735 617.993 732.96 615.473 732.96C613.013 732.96 610.973 735 610.973 737.52ZM631.592 759.18C631.832 756.06 634.352 752.7 638.732 752.7C643.532 752.7 645.812 755.76 645.932 759.18H631.592ZM646.712 766.8C645.752 769.68 643.592 771.9 639.392 771.9C635.072 771.9 631.592 768.72 631.412 764.28H652.772C652.832 764.16 652.952 763.2 652.952 762.06C652.952 752.82 647.672 746.88 638.672 746.88C631.292 746.88 624.452 753 624.452 762.24C624.452 772.14 631.472 777.9 639.392 777.9C646.412 777.9 651.032 773.76 652.592 768.66L646.712 766.8ZM665.363 760.14C665.363 756.3 667.463 753.24 671.423 753.24C675.803 753.24 677.423 756.12 677.423 759.72V777H684.383V758.52C684.383 752.1 680.963 746.94 673.823 746.94C670.583 746.94 667.103 748.32 665.183 751.68V747.78H658.403V777H665.363V760.14ZM700.476 738.84H694.176V743.22C694.176 745.8 692.796 747.78 689.676 747.78H688.176V753.96H693.576V768.66C693.576 774.12 696.936 777.36 702.336 777.36C704.856 777.36 706.176 776.88 706.596 776.7V770.94C706.296 771 705.156 771.18 704.196 771.18C701.616 771.18 700.476 770.1 700.476 767.52V753.96H706.536V747.78H700.476V738.84ZM733.013 760.14C733.013 756.3 735.113 753.24 739.073 753.24C743.453 753.24 745.073 756.12 745.073 759.72V777H752.033V758.52C752.033 752.1 748.613 746.94 741.473 746.94C738.233 746.94 734.753 748.32 732.833 751.68V747.78H726.053V777H733.013V760.14ZM757.506 769.08C757.506 773.7 761.286 777.9 767.406 777.9C772.146 777.9 775.026 775.5 776.406 773.28C776.406 775.62 776.646 776.82 776.706 777H783.186C783.126 776.7 782.826 774.96 782.826 772.32V757.8C782.826 751.98 779.406 746.88 770.406 746.88C763.206 746.88 758.646 751.38 758.106 756.42L764.466 757.86C764.766 754.92 766.806 752.58 770.466 752.58C774.306 752.58 775.986 754.56 775.986 757.02C775.986 758.04 775.506 758.88 773.826 759.12L766.326 760.26C761.346 760.98 757.506 763.86 757.506 769.08ZM768.726 772.44C765.966 772.44 764.466 770.64 764.466 768.66C764.466 766.26 766.206 765.06 768.366 764.7L775.986 763.56V764.88C775.986 770.58 772.626 772.44 768.726 772.44ZM796.94 777V759.66C796.94 755.94 799.28 753.18 803 753.18C806.96 753.18 808.64 755.82 808.64 759.18V777H815.48V759.66C815.48 756.06 817.88 753.18 821.54 753.18C825.44 753.18 827.18 755.76 827.18 759.18V777H833.9V758.04C833.9 750.3 828.86 746.94 823.58 746.94C819.8 746.94 816.38 748.26 814.1 752.1C812.54 748.68 809.18 746.94 805.34 746.94C802.04 746.94 798.38 748.5 796.7 751.5V747.78H790.04V777H796.94ZM846.083 759.18C846.323 756.06 848.843 752.7 853.223 752.7C858.023 752.7 860.303 755.76 860.423 759.18H846.083ZM861.203 766.8C860.243 769.68 858.083 771.9 853.883 771.9C849.563 771.9 846.083 768.72 845.903 764.28H867.263C867.323 764.16 867.443 763.2 867.443 762.06C867.443 752.82 862.163 746.88 853.163 746.88C845.783 746.88 838.943 753 838.943 762.24C838.943 772.14 845.963 777.9 853.883 777.9C860.903 777.9 865.523 773.76 867.083 768.66L861.203 766.8Z"
        fill="#8A82C9" />
    <path opacity="0.1"
        d="M1115.69 -172.538C1499.27 -240.173 2289.53 665.359 1159.71 532.02C29.8863 398.682 1039.73 1455.39 1810.39 1132.66"
        stroke="white" stroke-width="75" />
</svg>